<?xml version="1.0" encoding="UTF-8"?>
<svg version="1.1" xmlns="http://www.w3.org/2000/svg" width="512" height="512">
<path d="M0 0 C8.01141301 7.51399697 14.83215082 15.72608129 21.38916016 24.51904297 C22.02700439 25.35773926 22.02700439 25.35773926 22.67773438 26.21337891 C55.06425975 68.87244693 68.08763019 124.71252906 61.26416016 177.58154297 C55.20277973 219.48153452 37.22663701 256.83734312 9.38916016 288.51904297 C8.74205078 289.28861328 8.09494141 290.05818359 7.42822266 290.85107422 C4.03991569 294.86031526 0.4616503 298.37400395 -3.54833984 301.76123047 C-4.88749219 302.90255349 -6.20219695 304.07344025 -7.48583984 305.27685547 C-20.28069895 317.22205596 -35.08352428 326.57531819 -50.61083984 334.51904297 C-51.305 334.87836914 -51.99916016 335.23769531 -52.71435547 335.60791016 C-71.34483821 345.15185434 -91.07526801 350.76201527 -111.61083984 354.51904297 C-112.32030762 354.65181641 -113.02977539 354.78458984 -113.76074219 354.92138672 C-165.58162611 364.13398831 -221.90980007 349.25429874 -264.61083984 319.51904297 C-274.27565424 312.60603263 -283.03982801 304.72866287 -291.61083984 296.51904297 C-292.36107422 295.81005859 -293.11130859 295.10107422 -293.88427734 294.37060547 C-308.54703206 280.17149517 -320.24271491 262.56646013 -329.61083984 244.51904297 C-329.94535156 243.88659668 -330.27986328 243.25415039 -330.62451172 242.60253906 C-355.79466284 194.48241096 -358.90835422 136.81887691 -342.91088867 85.35864258 C-333.62955991 56.90890333 -318.91104596 31.73316542 -298.66162109 9.75732422 C-296.73639438 7.65607678 -294.89005681 5.50584991 -293.04833984 3.33154297 C-289.53397276 -0.67690747 -285.72315774 -4.09625305 -281.61083984 -7.48095703 C-281.08989746 -7.91424316 -280.56895508 -8.3475293 -280.03222656 -8.79394531 C-205.26407551 -70.78911636 -96.63976283 -75.63741932 0 0 Z M-262.61083984 20.51904297 C-263.96092442 21.66968323 -265.31495574 22.81571257 -266.67333984 23.95654297 C-297.50136863 51.02355224 -314.68800275 92.94937603 -319.36083984 132.95654297 C-319.47752437 134.80890989 -319.5544085 136.66386266 -319.61083984 138.51904297 C-319.63662109 139.25074707 -319.66240234 139.98245117 -319.68896484 140.73632812 C-320.9643883 181.8926487 -309.50056209 222.99296828 -283.61083984 255.51904297 C-283.17803711 256.06463867 -282.74523437 256.61023438 -282.29931641 257.17236328 C-268.23161657 274.71331553 -251.94990149 289.02678688 -232.61083984 300.51904297 C-232.03817383 300.86032227 -231.46550781 301.20160156 -230.87548828 301.55322266 C-204.82875585 316.81897442 -174.96907547 323.98835656 -144.92333984 323.83154297 C-144.17694244 323.82938782 -143.43054504 323.82723267 -142.66152954 323.82501221 C-98.88785467 323.62262981 -57.37029283 306.65258539 -25.61083984 276.51904297 C-24.3685208 275.46822765 -23.11943171 274.42531207 -21.86083984 273.39404297 C7.2871317 248.51835094 24.90520218 206.29425948 29.20385742 168.98266602 C32.7923735 121.27289556 20.98658888 74.26918173 -10.61083984 37.51904297 C-14.18109251 33.42497416 -17.86965192 29.45683118 -21.61083984 25.51904297 C-22.22830078 24.83712891 -22.84576172 24.15521484 -23.48193359 23.45263672 C-51.69179554 -6.64207124 -95.59767136 -23.6544015 -136.19702148 -25.60522461 C-183.05107175 -27.00043603 -228.29383509 -11.90547991 -262.61083984 20.51904297 Z " fill="#000000" transform="translate(399.61083984375,105.48095703125)"/>
<path d="M0 0 C4.54027049 2.30961586 6.91608619 5.7908007 8.859375 10.3515625 C9.36273956 13.83267975 9.36273956 13.83267975 9.36730957 17.56213379 C9.37354953 18.25329615 9.3797895 18.94445851 9.38621855 19.65656519 C9.40207325 21.95434138 9.38957504 24.25104556 9.37695312 26.54882812 C9.38237763 28.20351273 9.38950214 29.85819249 9.39819336 31.51286316 C9.41639067 35.99430171 9.4093741 40.47537091 9.39667702 44.95681572 C9.3865307 49.65273896 9.39594723 54.34863115 9.40222168 59.04455566 C9.40949333 66.92966371 9.39992304 74.81462177 9.38085938 82.69970703 C9.35909155 91.80831311 9.36614326 100.91656101 9.388165 110.02515841 C9.40633274 117.85382538 9.4088706 125.68238471 9.39841032 133.51106596 C9.39218294 138.183203 9.39131894 142.85517183 9.40455627 147.52729797 C9.41613418 151.92037486 9.4080538 156.31299117 9.38497925 160.70601845 C9.37970249 162.31563363 9.38118824 163.92528776 9.39002991 165.53488731 C9.40101075 167.73744035 9.38719386 169.93853062 9.36730957 172.14099121 C9.36580147 173.37171104 9.36429337 174.60243088 9.36273956 175.87044525 C8.57055396 181.34896155 6.34730457 185.06653242 2.109375 188.7265625 C-3.17317724 191.36783862 -7.65635932 192.07502009 -13.265625 190.3515625 C-17.65596662 188.47246165 -20.63685098 185.38012623 -23.140625 181.3515625 C-24.31817939 177.79530332 -24.27455758 174.38604381 -24.28779602 170.66033936 C-24.29147271 169.98878004 -24.2951494 169.31722073 -24.2989375 168.62531114 C-24.30994598 166.3761762 -24.31381333 164.1270875 -24.31762695 161.87792969 C-24.32389372 160.26472325 -24.33054071 158.65151825 -24.33753967 157.03831482 C-24.35855603 151.74169923 -24.36893935 146.44508342 -24.37890625 141.1484375 C-24.38295462 139.32346837 -24.38707157 137.4984994 -24.39125633 135.67353058 C-24.41030216 127.0995867 -24.42453484 118.5256514 -24.4328683 109.95169044 C-24.44264078 100.06110093 -24.46896311 90.17073522 -24.50936919 80.28022456 C-24.5395452 72.63082337 -24.55433856 64.98148628 -24.55764931 57.33202672 C-24.55999797 52.76540647 -24.56893448 48.19902547 -24.59411049 43.63246918 C-24.61742248 39.33469252 -24.62161197 35.03731214 -24.61134911 30.7394886 C-24.6108544 29.16575107 -24.61715548 27.59199381 -24.63090515 26.01831627 C-24.75338316 11.16451322 -24.75338316 11.16451322 -20.140625 4.3515625 C-14.26602535 -1.10342289 -7.8039794 -2.36397916 0 0 Z " fill="#000000" transform="translate(262.140625,191.6484375)"/>
<path d="M0 0 C4.98669007 2.49334503 8.49675474 5.99350949 11 11 C11.29867388 15.22304263 11.27816506 19.45514676 11.3125 23.6875 C11.34150391 24.85990234 11.37050781 26.03230469 11.40039062 27.24023438 C11.45050581 34.06746433 11.19699127 38.50811125 7 44 C2.76503745 47.65746766 -1.40336268 49.24195988 -7 49 C-12.80038622 47.96421675 -16.18776742 45.3026375 -19.87109375 40.81640625 C-22.85989943 36.00742825 -22.21979079 30.21031495 -22.25 24.75 C-22.270625 23.83347656 -22.29125 22.91695312 -22.3125 21.97265625 C-22.34829379 15.69979387 -22.03304628 9.33770961 -17.58300781 4.44067383 C-12.16735596 -0.2742174 -6.91209626 -0.77639771 0 0 Z " fill="#000000" transform="translate(260,127)"/>
</svg>
